M48
; DRILL file {KiCad (5.1.2)-2} date 2019-08-04 2:17:23 PM
; FORMAT={-:-/ absolute / inch / decimal}
; #@! TF.CreationDate,2019-08-04T14:17:23-07:00
; #@! TF.GenerationSoftware,Kicad,Pcbnew,(5.1.2)-2
; #@! TF.FileFunction,NonPlated,1,2,NPTH
FMAT,2
INCH
T1C0.0670
T2C0.1181
T3C0.1570
%
G90
G05
T1
X3.65Y-2.3
X4.05Y-2.3
X5.9Y-3.05
X6.3Y-3.05
X3.65Y-3.05
X4.05Y-3.05
X3.65Y-3.8
X4.05Y-3.8
X3.65Y-1.55
X4.05Y-1.55
X5.15Y-3.05
X5.55Y-3.05
X5.9Y-3.8
X6.3Y-3.8
X4.4Y-3.05
X4.8Y-3.05
X5.15Y-2.3
X5.55Y-2.3
X5.15Y-4.55
X5.55Y-4.55
X4.4Y-3.8
X4.8Y-3.8
X5.15Y-3.8
X5.55Y-3.8
X4.4Y-2.3
X4.8Y-2.3
X3.65Y-4.55
X4.05Y-4.55
X5.9Y-2.3
X6.3Y-2.3
X4.4Y-1.55
X4.8Y-1.55
X5.9Y-4.55
X6.3Y-4.55
X4.4Y-4.55
X4.8Y-4.55
T2
X4.5Y-1.75
X4.75Y-1.65
X6.0Y-4.75
X6.25Y-4.65
X4.5Y-4.75
X4.75Y-4.65
X3.75Y-2.5
X4.0Y-2.4
X6.0Y-3.25
X6.25Y-3.15
X3.75Y-3.25
X4.0Y-3.15
X3.75Y-4.0
X4.0Y-3.9
X3.75Y-1.75
X4.0Y-1.65
X5.25Y-3.25
X5.5Y-3.15
X6.0Y-4.0
X6.25Y-3.9
X4.5Y-3.25
X4.75Y-3.15
X5.25Y-2.5
X5.5Y-2.4
X5.25Y-4.75
X5.5Y-4.65
X4.5Y-4.0
X4.75Y-3.9
X5.25Y-4.0
X5.5Y-3.9
X4.5Y-2.5
X4.75Y-2.4
X3.75Y-4.75
X4.0Y-4.65
X6.0Y-2.5
X6.25Y-2.4
T3
X3.85Y-2.3
X6.1Y-3.05
X3.85Y-3.05
X3.85Y-3.8
X3.85Y-1.55
X5.35Y-3.05
X6.1Y-3.8
X4.6Y-3.05
X5.35Y-2.3
X5.35Y-4.55
X4.6Y-3.8
X5.35Y-3.8
X4.6Y-2.3
X3.85Y-4.55
X6.1Y-2.3
X4.6Y-1.55
X6.1Y-4.55
X4.6Y-4.55
T0
M30
