M48
; DRILL file {KiCad (5.1.2)-2} date 2019-08-04 2:17:23 PM
; FORMAT={-:-/ absolute / inch / decimal}
; #@! TF.CreationDate,2019-08-04T14:17:23-07:00
; #@! TF.GenerationSoftware,Kicad,Pcbnew,(5.1.2)-2
; #@! TF.FileFunction,Plated,1,2,PTH
FMAT,2
INCH
T1C0.0157
T2C0.0276
T3C0.0433
T4C0.0590
T5C0.0984
T6C0.1260
%
G90
G05
T1
X6.075Y-1.55
X6.075Y-1.725
T2
X4.225Y-3.4679
X4.225Y-3.775
X4.225Y-1.2215
X4.225Y-1.5285
X6.475Y-1.9679
X6.475Y-2.275
X5.725Y-4.2215
X5.725Y-4.5285
X6.475Y-2.7215
X6.475Y-3.0285
X4.975Y-2.7179
X4.975Y-3.025
X4.4679Y-3.425
X4.775Y-3.425
X4.4429Y-1.925
X4.75Y-1.925
X4.225Y-2.7179
X4.225Y-3.025
X6.475Y-3.4715
X6.475Y-3.7785
X5.725Y-3.4715
X5.725Y-3.7785
X4.975Y-1.9679
X4.975Y-2.275
X5.725Y-2.7179
X5.725Y-3.025
X4.225Y-1.9715
X4.225Y-2.2785
X6.475Y-4.2179
X6.475Y-4.525
X4.225Y-4.2179
X4.225Y-4.525
X5.725Y-1.9715
X5.725Y-2.2785
X4.975Y-4.2215
X4.975Y-4.5285
T3
X5.075Y-1.225
X5.075Y-1.325
X5.075Y-1.425
X5.075Y-1.525
X5.075Y-1.625
X5.075Y-1.725
X5.075Y-1.825
X5.175Y-1.225
X5.175Y-1.825
X5.275Y-1.225
X5.275Y-1.825
X5.375Y-1.225
X5.375Y-1.825
X5.475Y-1.225
X5.475Y-1.825
X5.575Y-1.225
X5.575Y-1.825
X5.675Y-1.225
X5.675Y-1.825
X5.775Y-1.225
X5.775Y-1.325
X5.775Y-1.725
X5.775Y-1.825
X5.875Y-1.225
X5.875Y-1.825
X5.975Y-1.225
X5.975Y-1.825
X6.075Y-1.225
X6.075Y-1.825
X6.175Y-1.225
X6.175Y-1.825
T4
X4.45Y-1.45
X4.7Y-1.35
X5.95Y-4.45
X6.2Y-4.35
X4.45Y-4.45
X4.7Y-4.35
X3.7Y-2.2
X3.95Y-2.1
X5.95Y-2.95
X6.2Y-2.85
X3.7Y-2.95
X3.95Y-2.85
X3.7Y-3.7
X3.95Y-3.6
X3.7Y-1.45
X3.95Y-1.35
X5.2Y-2.95
X5.45Y-2.85
X5.95Y-3.7
X6.2Y-3.6
X4.45Y-2.95
X4.7Y-2.85
X5.2Y-2.2
X5.45Y-2.1
X5.2Y-4.45
X5.45Y-4.35
X4.45Y-3.7
X4.7Y-3.6
X5.2Y-3.7
X5.45Y-3.6
X4.45Y-2.2
X4.7Y-2.1
X3.7Y-4.45
X3.95Y-4.35
X5.95Y-2.2
X6.2Y-2.1
T6
X3.175Y-1.25
X3.175Y-2.3
X6.775Y-1.25
X6.775Y-2.3
X3.175Y-3.8
X6.775Y-3.8
X3.175Y-4.85
X6.775Y-4.85
T5
G00X4.9455Y-3.425
M15
G01X5.0045Y-3.425
M16
G05
T0
M30
