G04 #@! TF.GenerationSoftware,KiCad,Pcbnew,(5.1.2)-2*
G04 #@! TF.CreationDate,2019-08-04T14:17:21-07:00*
G04 #@! TF.ProjectId,pcb v1.2,70636220-7631-42e3-922e-6b696361645f,rev?*
G04 #@! TF.SameCoordinates,Original*
G04 #@! TF.FileFunction,Legend,Bot*
G04 #@! TF.FilePolarity,Positive*
%FSLAX46Y46*%
G04 Gerber Fmt 4.6, Leading zero omitted, Abs format (unit mm)*
G04 Created by KiCad (PCBNEW (5.1.2)-2) date 2019-08-04 14:17:21*
%MOMM*%
%LPD*%
G04 APERTURE LIST*
%ADD10C,0.120000*%
%ADD11C,0.150000*%
G04 APERTURE END LIST*
D10*
X133985000Y-36830000D02*
X131445000Y-36830000D01*
X133985000Y-41275000D02*
X133985000Y-36830000D01*
X131445000Y-41275000D02*
X133985000Y-41275000D01*
X131445000Y-36830000D02*
X131445000Y-41275000D01*
X136525000Y-38735000D02*
X141605000Y-33655000D01*
X141605000Y-43815000D02*
X136525000Y-38735000D01*
X146685000Y-38735000D02*
X141605000Y-43815000D01*
X141605000Y-33655000D02*
X146685000Y-38735000D01*
D11*
X142890000Y-70470000D02*
X142890000Y-71470000D01*
X141890000Y-70470000D02*
X142890000Y-70470000D01*
X142890000Y-84470000D02*
X141890000Y-84470000D01*
X142890000Y-83470000D02*
X142890000Y-84470000D01*
X128890000Y-84470000D02*
X128890000Y-83470000D01*
X129890000Y-84470000D02*
X128890000Y-84470000D01*
X128890000Y-70470000D02*
X129890000Y-70470000D01*
X128890000Y-71470000D02*
X128890000Y-70470000D01*
X90790000Y-52420000D02*
X90790000Y-51420000D01*
X90790000Y-51420000D02*
X91790000Y-51420000D01*
X91790000Y-65420000D02*
X90790000Y-65420000D01*
X90790000Y-65420000D02*
X90790000Y-64420000D01*
X104790000Y-64420000D02*
X104790000Y-65420000D01*
X104790000Y-65420000D02*
X103790000Y-65420000D01*
X103790000Y-51420000D02*
X104790000Y-51420000D01*
X104790000Y-51420000D02*
X104790000Y-52420000D01*
X109840000Y-52420000D02*
X109840000Y-51420000D01*
X109840000Y-51420000D02*
X110840000Y-51420000D01*
X110840000Y-65420000D02*
X109840000Y-65420000D01*
X109840000Y-65420000D02*
X109840000Y-64420000D01*
X123840000Y-64420000D02*
X123840000Y-65420000D01*
X123840000Y-65420000D02*
X122840000Y-65420000D01*
X122840000Y-51420000D02*
X123840000Y-51420000D01*
X123840000Y-51420000D02*
X123840000Y-52420000D01*
X128890000Y-52420000D02*
X128890000Y-51420000D01*
X128890000Y-51420000D02*
X129890000Y-51420000D01*
X129890000Y-65420000D02*
X128890000Y-65420000D01*
X128890000Y-65420000D02*
X128890000Y-64420000D01*
X142890000Y-64420000D02*
X142890000Y-65420000D01*
X142890000Y-65420000D02*
X141890000Y-65420000D01*
X141890000Y-51420000D02*
X142890000Y-51420000D01*
X142890000Y-51420000D02*
X142890000Y-52420000D01*
X161940000Y-51420000D02*
X161940000Y-52420000D01*
X160940000Y-51420000D02*
X161940000Y-51420000D01*
X161940000Y-65420000D02*
X160940000Y-65420000D01*
X161940000Y-64420000D02*
X161940000Y-65420000D01*
X147940000Y-65420000D02*
X147940000Y-64420000D01*
X148940000Y-65420000D02*
X147940000Y-65420000D01*
X147940000Y-51420000D02*
X148940000Y-51420000D01*
X147940000Y-52420000D02*
X147940000Y-51420000D01*
X104790000Y-70470000D02*
X104790000Y-71470000D01*
X103790000Y-70470000D02*
X104790000Y-70470000D01*
X104790000Y-84470000D02*
X103790000Y-84470000D01*
X104790000Y-83470000D02*
X104790000Y-84470000D01*
X90790000Y-84470000D02*
X90790000Y-83470000D01*
X91790000Y-84470000D02*
X90790000Y-84470000D01*
X90790000Y-70470000D02*
X91790000Y-70470000D01*
X90790000Y-71470000D02*
X90790000Y-70470000D01*
X109840000Y-71470000D02*
X109840000Y-70470000D01*
X109840000Y-70470000D02*
X110840000Y-70470000D01*
X110840000Y-84470000D02*
X109840000Y-84470000D01*
X109840000Y-84470000D02*
X109840000Y-83470000D01*
X123840000Y-83470000D02*
X123840000Y-84470000D01*
X123840000Y-84470000D02*
X122840000Y-84470000D01*
X122840000Y-70470000D02*
X123840000Y-70470000D01*
X123840000Y-70470000D02*
X123840000Y-71470000D01*
X147940000Y-71470000D02*
X147940000Y-70470000D01*
X147940000Y-70470000D02*
X148940000Y-70470000D01*
X148940000Y-84470000D02*
X147940000Y-84470000D01*
X147940000Y-84470000D02*
X147940000Y-83470000D01*
X161940000Y-83470000D02*
X161940000Y-84470000D01*
X161940000Y-84470000D02*
X160940000Y-84470000D01*
X160940000Y-70470000D02*
X161940000Y-70470000D01*
X161940000Y-70470000D02*
X161940000Y-71470000D01*
X90790000Y-90520000D02*
X90790000Y-89520000D01*
X90790000Y-89520000D02*
X91790000Y-89520000D01*
X91790000Y-103520000D02*
X90790000Y-103520000D01*
X90790000Y-103520000D02*
X90790000Y-102520000D01*
X104790000Y-102520000D02*
X104790000Y-103520000D01*
X104790000Y-103520000D02*
X103790000Y-103520000D01*
X103790000Y-89520000D02*
X104790000Y-89520000D01*
X104790000Y-89520000D02*
X104790000Y-90520000D01*
X123840000Y-89520000D02*
X123840000Y-90520000D01*
X122840000Y-89520000D02*
X123840000Y-89520000D01*
X123840000Y-103520000D02*
X122840000Y-103520000D01*
X123840000Y-102520000D02*
X123840000Y-103520000D01*
X109840000Y-103520000D02*
X109840000Y-102520000D01*
X110840000Y-103520000D02*
X109840000Y-103520000D01*
X109840000Y-89520000D02*
X110840000Y-89520000D01*
X109840000Y-90520000D02*
X109840000Y-89520000D01*
X128890000Y-90520000D02*
X128890000Y-89520000D01*
X128890000Y-89520000D02*
X129890000Y-89520000D01*
X129890000Y-103520000D02*
X128890000Y-103520000D01*
X128890000Y-103520000D02*
X128890000Y-102520000D01*
X142890000Y-102520000D02*
X142890000Y-103520000D01*
X142890000Y-103520000D02*
X141890000Y-103520000D01*
X141890000Y-89520000D02*
X142890000Y-89520000D01*
X142890000Y-89520000D02*
X142890000Y-90520000D01*
X147940000Y-90520000D02*
X147940000Y-89520000D01*
X147940000Y-89520000D02*
X148940000Y-89520000D01*
X148940000Y-103520000D02*
X147940000Y-103520000D01*
X147940000Y-103520000D02*
X147940000Y-102520000D01*
X161940000Y-102520000D02*
X161940000Y-103520000D01*
X161940000Y-103520000D02*
X160940000Y-103520000D01*
X160940000Y-89520000D02*
X161940000Y-89520000D01*
X161940000Y-89520000D02*
X161940000Y-90520000D01*
X104790000Y-108570000D02*
X104790000Y-109570000D01*
X103790000Y-108570000D02*
X104790000Y-108570000D01*
X104790000Y-122570000D02*
X103790000Y-122570000D01*
X104790000Y-121570000D02*
X104790000Y-122570000D01*
X90790000Y-122570000D02*
X90790000Y-121570000D01*
X91790000Y-122570000D02*
X90790000Y-122570000D01*
X90790000Y-108570000D02*
X91790000Y-108570000D01*
X90790000Y-109570000D02*
X90790000Y-108570000D01*
X109840000Y-109570000D02*
X109840000Y-108570000D01*
X109840000Y-108570000D02*
X110840000Y-108570000D01*
X110840000Y-122570000D02*
X109840000Y-122570000D01*
X109840000Y-122570000D02*
X109840000Y-121570000D01*
X123840000Y-121570000D02*
X123840000Y-122570000D01*
X123840000Y-122570000D02*
X122840000Y-122570000D01*
X122840000Y-108570000D02*
X123840000Y-108570000D01*
X123840000Y-108570000D02*
X123840000Y-109570000D01*
X142890000Y-108570000D02*
X142890000Y-109570000D01*
X141890000Y-108570000D02*
X142890000Y-108570000D01*
X142890000Y-122570000D02*
X141890000Y-122570000D01*
X142890000Y-121570000D02*
X142890000Y-122570000D01*
X128890000Y-122570000D02*
X128890000Y-121570000D01*
X129890000Y-122570000D02*
X128890000Y-122570000D01*
X128890000Y-108570000D02*
X129890000Y-108570000D01*
X128890000Y-109570000D02*
X128890000Y-108570000D01*
X161940000Y-108570000D02*
X161940000Y-109570000D01*
X160940000Y-108570000D02*
X161940000Y-108570000D01*
X161940000Y-122570000D02*
X160940000Y-122570000D01*
X161940000Y-121570000D02*
X161940000Y-122570000D01*
X147940000Y-122570000D02*
X147940000Y-121570000D01*
X148940000Y-122570000D02*
X147940000Y-122570000D01*
X147940000Y-108570000D02*
X148940000Y-108570000D01*
X147940000Y-109570000D02*
X147940000Y-108570000D01*
X104790000Y-32370000D02*
X104790000Y-33370000D01*
X103790000Y-32370000D02*
X104790000Y-32370000D01*
X104790000Y-46370000D02*
X103790000Y-46370000D01*
X104790000Y-45370000D02*
X104790000Y-46370000D01*
X90790000Y-46370000D02*
X90790000Y-45370000D01*
X91790000Y-46370000D02*
X90790000Y-46370000D01*
X90790000Y-32370000D02*
X91790000Y-32370000D01*
X90790000Y-33370000D02*
X90790000Y-32370000D01*
X123840000Y-32370000D02*
X123840000Y-33370000D01*
X122840000Y-32370000D02*
X123840000Y-32370000D01*
X123840000Y-46370000D02*
X122840000Y-46370000D01*
X123840000Y-45370000D02*
X123840000Y-46370000D01*
X109840000Y-46370000D02*
X109840000Y-45370000D01*
X110840000Y-46370000D02*
X109840000Y-46370000D01*
X109840000Y-32370000D02*
X110840000Y-32370000D01*
X109840000Y-33370000D02*
X109840000Y-32370000D01*
D10*
X160135000Y-32965000D02*
X166255000Y-32965000D01*
X166255000Y-32965000D02*
X166255000Y-29265000D01*
X166255000Y-29265000D02*
X160135000Y-29265000D01*
X160135000Y-29265000D02*
X160135000Y-32965000D01*
D11*
X137223333Y-86174761D02*
X137080476Y-86222380D01*
X136842380Y-86222380D01*
X136747142Y-86174761D01*
X136699523Y-86127142D01*
X136651904Y-86031904D01*
X136651904Y-85936666D01*
X136699523Y-85841428D01*
X136747142Y-85793809D01*
X136842380Y-85746190D01*
X137032857Y-85698571D01*
X137128095Y-85650952D01*
X137175714Y-85603333D01*
X137223333Y-85508095D01*
X137223333Y-85412857D01*
X137175714Y-85317619D01*
X137128095Y-85270000D01*
X137032857Y-85222380D01*
X136794761Y-85222380D01*
X136651904Y-85270000D01*
X136318571Y-85222380D02*
X136080476Y-86222380D01*
X135890000Y-85508095D01*
X135699523Y-86222380D01*
X135461428Y-85222380D01*
X135175714Y-85222380D02*
X134509047Y-85222380D01*
X134937619Y-86222380D01*
X99123333Y-67124761D02*
X98980476Y-67172380D01*
X98742380Y-67172380D01*
X98647142Y-67124761D01*
X98599523Y-67077142D01*
X98551904Y-66981904D01*
X98551904Y-66886666D01*
X98599523Y-66791428D01*
X98647142Y-66743809D01*
X98742380Y-66696190D01*
X98932857Y-66648571D01*
X99028095Y-66600952D01*
X99075714Y-66553333D01*
X99123333Y-66458095D01*
X99123333Y-66362857D01*
X99075714Y-66267619D01*
X99028095Y-66220000D01*
X98932857Y-66172380D01*
X98694761Y-66172380D01*
X98551904Y-66220000D01*
X98218571Y-66172380D02*
X97980476Y-67172380D01*
X97790000Y-66458095D01*
X97599523Y-67172380D01*
X97361428Y-66172380D01*
X96456666Y-67172380D02*
X97028095Y-67172380D01*
X96742380Y-67172380D02*
X96742380Y-66172380D01*
X96837619Y-66315238D01*
X96932857Y-66410476D01*
X97028095Y-66458095D01*
X118173333Y-67124761D02*
X118030476Y-67172380D01*
X117792380Y-67172380D01*
X117697142Y-67124761D01*
X117649523Y-67077142D01*
X117601904Y-66981904D01*
X117601904Y-66886666D01*
X117649523Y-66791428D01*
X117697142Y-66743809D01*
X117792380Y-66696190D01*
X117982857Y-66648571D01*
X118078095Y-66600952D01*
X118125714Y-66553333D01*
X118173333Y-66458095D01*
X118173333Y-66362857D01*
X118125714Y-66267619D01*
X118078095Y-66220000D01*
X117982857Y-66172380D01*
X117744761Y-66172380D01*
X117601904Y-66220000D01*
X117268571Y-66172380D02*
X117030476Y-67172380D01*
X116840000Y-66458095D01*
X116649523Y-67172380D01*
X116411428Y-66172380D01*
X116078095Y-66267619D02*
X116030476Y-66220000D01*
X115935238Y-66172380D01*
X115697142Y-66172380D01*
X115601904Y-66220000D01*
X115554285Y-66267619D01*
X115506666Y-66362857D01*
X115506666Y-66458095D01*
X115554285Y-66600952D01*
X116125714Y-67172380D01*
X115506666Y-67172380D01*
X137223333Y-67124761D02*
X137080476Y-67172380D01*
X136842380Y-67172380D01*
X136747142Y-67124761D01*
X136699523Y-67077142D01*
X136651904Y-66981904D01*
X136651904Y-66886666D01*
X136699523Y-66791428D01*
X136747142Y-66743809D01*
X136842380Y-66696190D01*
X137032857Y-66648571D01*
X137128095Y-66600952D01*
X137175714Y-66553333D01*
X137223333Y-66458095D01*
X137223333Y-66362857D01*
X137175714Y-66267619D01*
X137128095Y-66220000D01*
X137032857Y-66172380D01*
X136794761Y-66172380D01*
X136651904Y-66220000D01*
X136318571Y-66172380D02*
X136080476Y-67172380D01*
X135890000Y-66458095D01*
X135699523Y-67172380D01*
X135461428Y-66172380D01*
X135175714Y-66172380D02*
X134556666Y-66172380D01*
X134890000Y-66553333D01*
X134747142Y-66553333D01*
X134651904Y-66600952D01*
X134604285Y-66648571D01*
X134556666Y-66743809D01*
X134556666Y-66981904D01*
X134604285Y-67077142D01*
X134651904Y-67124761D01*
X134747142Y-67172380D01*
X135032857Y-67172380D01*
X135128095Y-67124761D01*
X135175714Y-67077142D01*
X156273333Y-67124761D02*
X156130476Y-67172380D01*
X155892380Y-67172380D01*
X155797142Y-67124761D01*
X155749523Y-67077142D01*
X155701904Y-66981904D01*
X155701904Y-66886666D01*
X155749523Y-66791428D01*
X155797142Y-66743809D01*
X155892380Y-66696190D01*
X156082857Y-66648571D01*
X156178095Y-66600952D01*
X156225714Y-66553333D01*
X156273333Y-66458095D01*
X156273333Y-66362857D01*
X156225714Y-66267619D01*
X156178095Y-66220000D01*
X156082857Y-66172380D01*
X155844761Y-66172380D01*
X155701904Y-66220000D01*
X155368571Y-66172380D02*
X155130476Y-67172380D01*
X154940000Y-66458095D01*
X154749523Y-67172380D01*
X154511428Y-66172380D01*
X153701904Y-66505714D02*
X153701904Y-67172380D01*
X153940000Y-66124761D02*
X154178095Y-66839047D01*
X153559047Y-66839047D01*
X99123333Y-86174761D02*
X98980476Y-86222380D01*
X98742380Y-86222380D01*
X98647142Y-86174761D01*
X98599523Y-86127142D01*
X98551904Y-86031904D01*
X98551904Y-85936666D01*
X98599523Y-85841428D01*
X98647142Y-85793809D01*
X98742380Y-85746190D01*
X98932857Y-85698571D01*
X99028095Y-85650952D01*
X99075714Y-85603333D01*
X99123333Y-85508095D01*
X99123333Y-85412857D01*
X99075714Y-85317619D01*
X99028095Y-85270000D01*
X98932857Y-85222380D01*
X98694761Y-85222380D01*
X98551904Y-85270000D01*
X98218571Y-85222380D02*
X97980476Y-86222380D01*
X97790000Y-85508095D01*
X97599523Y-86222380D01*
X97361428Y-85222380D01*
X96504285Y-85222380D02*
X96980476Y-85222380D01*
X97028095Y-85698571D01*
X96980476Y-85650952D01*
X96885238Y-85603333D01*
X96647142Y-85603333D01*
X96551904Y-85650952D01*
X96504285Y-85698571D01*
X96456666Y-85793809D01*
X96456666Y-86031904D01*
X96504285Y-86127142D01*
X96551904Y-86174761D01*
X96647142Y-86222380D01*
X96885238Y-86222380D01*
X96980476Y-86174761D01*
X97028095Y-86127142D01*
X118173333Y-86174761D02*
X118030476Y-86222380D01*
X117792380Y-86222380D01*
X117697142Y-86174761D01*
X117649523Y-86127142D01*
X117601904Y-86031904D01*
X117601904Y-85936666D01*
X117649523Y-85841428D01*
X117697142Y-85793809D01*
X117792380Y-85746190D01*
X117982857Y-85698571D01*
X118078095Y-85650952D01*
X118125714Y-85603333D01*
X118173333Y-85508095D01*
X118173333Y-85412857D01*
X118125714Y-85317619D01*
X118078095Y-85270000D01*
X117982857Y-85222380D01*
X117744761Y-85222380D01*
X117601904Y-85270000D01*
X117268571Y-85222380D02*
X117030476Y-86222380D01*
X116840000Y-85508095D01*
X116649523Y-86222380D01*
X116411428Y-85222380D01*
X115601904Y-85222380D02*
X115792380Y-85222380D01*
X115887619Y-85270000D01*
X115935238Y-85317619D01*
X116030476Y-85460476D01*
X116078095Y-85650952D01*
X116078095Y-86031904D01*
X116030476Y-86127142D01*
X115982857Y-86174761D01*
X115887619Y-86222380D01*
X115697142Y-86222380D01*
X115601904Y-86174761D01*
X115554285Y-86127142D01*
X115506666Y-86031904D01*
X115506666Y-85793809D01*
X115554285Y-85698571D01*
X115601904Y-85650952D01*
X115697142Y-85603333D01*
X115887619Y-85603333D01*
X115982857Y-85650952D01*
X116030476Y-85698571D01*
X116078095Y-85793809D01*
X156273333Y-86174761D02*
X156130476Y-86222380D01*
X155892380Y-86222380D01*
X155797142Y-86174761D01*
X155749523Y-86127142D01*
X155701904Y-86031904D01*
X155701904Y-85936666D01*
X155749523Y-85841428D01*
X155797142Y-85793809D01*
X155892380Y-85746190D01*
X156082857Y-85698571D01*
X156178095Y-85650952D01*
X156225714Y-85603333D01*
X156273333Y-85508095D01*
X156273333Y-85412857D01*
X156225714Y-85317619D01*
X156178095Y-85270000D01*
X156082857Y-85222380D01*
X155844761Y-85222380D01*
X155701904Y-85270000D01*
X155368571Y-85222380D02*
X155130476Y-86222380D01*
X154940000Y-85508095D01*
X154749523Y-86222380D01*
X154511428Y-85222380D01*
X153987619Y-85650952D02*
X154082857Y-85603333D01*
X154130476Y-85555714D01*
X154178095Y-85460476D01*
X154178095Y-85412857D01*
X154130476Y-85317619D01*
X154082857Y-85270000D01*
X153987619Y-85222380D01*
X153797142Y-85222380D01*
X153701904Y-85270000D01*
X153654285Y-85317619D01*
X153606666Y-85412857D01*
X153606666Y-85460476D01*
X153654285Y-85555714D01*
X153701904Y-85603333D01*
X153797142Y-85650952D01*
X153987619Y-85650952D01*
X154082857Y-85698571D01*
X154130476Y-85746190D01*
X154178095Y-85841428D01*
X154178095Y-86031904D01*
X154130476Y-86127142D01*
X154082857Y-86174761D01*
X153987619Y-86222380D01*
X153797142Y-86222380D01*
X153701904Y-86174761D01*
X153654285Y-86127142D01*
X153606666Y-86031904D01*
X153606666Y-85841428D01*
X153654285Y-85746190D01*
X153701904Y-85698571D01*
X153797142Y-85650952D01*
X99123333Y-105224761D02*
X98980476Y-105272380D01*
X98742380Y-105272380D01*
X98647142Y-105224761D01*
X98599523Y-105177142D01*
X98551904Y-105081904D01*
X98551904Y-104986666D01*
X98599523Y-104891428D01*
X98647142Y-104843809D01*
X98742380Y-104796190D01*
X98932857Y-104748571D01*
X99028095Y-104700952D01*
X99075714Y-104653333D01*
X99123333Y-104558095D01*
X99123333Y-104462857D01*
X99075714Y-104367619D01*
X99028095Y-104320000D01*
X98932857Y-104272380D01*
X98694761Y-104272380D01*
X98551904Y-104320000D01*
X98218571Y-104272380D02*
X97980476Y-105272380D01*
X97790000Y-104558095D01*
X97599523Y-105272380D01*
X97361428Y-104272380D01*
X96932857Y-105272380D02*
X96742380Y-105272380D01*
X96647142Y-105224761D01*
X96599523Y-105177142D01*
X96504285Y-105034285D01*
X96456666Y-104843809D01*
X96456666Y-104462857D01*
X96504285Y-104367619D01*
X96551904Y-104320000D01*
X96647142Y-104272380D01*
X96837619Y-104272380D01*
X96932857Y-104320000D01*
X96980476Y-104367619D01*
X97028095Y-104462857D01*
X97028095Y-104700952D01*
X96980476Y-104796190D01*
X96932857Y-104843809D01*
X96837619Y-104891428D01*
X96647142Y-104891428D01*
X96551904Y-104843809D01*
X96504285Y-104796190D01*
X96456666Y-104700952D01*
X118649523Y-105224761D02*
X118506666Y-105272380D01*
X118268571Y-105272380D01*
X118173333Y-105224761D01*
X118125714Y-105177142D01*
X118078095Y-105081904D01*
X118078095Y-104986666D01*
X118125714Y-104891428D01*
X118173333Y-104843809D01*
X118268571Y-104796190D01*
X118459047Y-104748571D01*
X118554285Y-104700952D01*
X118601904Y-104653333D01*
X118649523Y-104558095D01*
X118649523Y-104462857D01*
X118601904Y-104367619D01*
X118554285Y-104320000D01*
X118459047Y-104272380D01*
X118220952Y-104272380D01*
X118078095Y-104320000D01*
X117744761Y-104272380D02*
X117506666Y-105272380D01*
X117316190Y-104558095D01*
X117125714Y-105272380D01*
X116887619Y-104272380D01*
X115982857Y-105272380D02*
X116554285Y-105272380D01*
X116268571Y-105272380D02*
X116268571Y-104272380D01*
X116363809Y-104415238D01*
X116459047Y-104510476D01*
X116554285Y-104558095D01*
X115363809Y-104272380D02*
X115268571Y-104272380D01*
X115173333Y-104320000D01*
X115125714Y-104367619D01*
X115078095Y-104462857D01*
X115030476Y-104653333D01*
X115030476Y-104891428D01*
X115078095Y-105081904D01*
X115125714Y-105177142D01*
X115173333Y-105224761D01*
X115268571Y-105272380D01*
X115363809Y-105272380D01*
X115459047Y-105224761D01*
X115506666Y-105177142D01*
X115554285Y-105081904D01*
X115601904Y-104891428D01*
X115601904Y-104653333D01*
X115554285Y-104462857D01*
X115506666Y-104367619D01*
X115459047Y-104320000D01*
X115363809Y-104272380D01*
X137699523Y-105224761D02*
X137556666Y-105272380D01*
X137318571Y-105272380D01*
X137223333Y-105224761D01*
X137175714Y-105177142D01*
X137128095Y-105081904D01*
X137128095Y-104986666D01*
X137175714Y-104891428D01*
X137223333Y-104843809D01*
X137318571Y-104796190D01*
X137509047Y-104748571D01*
X137604285Y-104700952D01*
X137651904Y-104653333D01*
X137699523Y-104558095D01*
X137699523Y-104462857D01*
X137651904Y-104367619D01*
X137604285Y-104320000D01*
X137509047Y-104272380D01*
X137270952Y-104272380D01*
X137128095Y-104320000D01*
X136794761Y-104272380D02*
X136556666Y-105272380D01*
X136366190Y-104558095D01*
X136175714Y-105272380D01*
X135937619Y-104272380D01*
X135032857Y-105272380D02*
X135604285Y-105272380D01*
X135318571Y-105272380D02*
X135318571Y-104272380D01*
X135413809Y-104415238D01*
X135509047Y-104510476D01*
X135604285Y-104558095D01*
X134080476Y-105272380D02*
X134651904Y-105272380D01*
X134366190Y-105272380D02*
X134366190Y-104272380D01*
X134461428Y-104415238D01*
X134556666Y-104510476D01*
X134651904Y-104558095D01*
X156749523Y-105224761D02*
X156606666Y-105272380D01*
X156368571Y-105272380D01*
X156273333Y-105224761D01*
X156225714Y-105177142D01*
X156178095Y-105081904D01*
X156178095Y-104986666D01*
X156225714Y-104891428D01*
X156273333Y-104843809D01*
X156368571Y-104796190D01*
X156559047Y-104748571D01*
X156654285Y-104700952D01*
X156701904Y-104653333D01*
X156749523Y-104558095D01*
X156749523Y-104462857D01*
X156701904Y-104367619D01*
X156654285Y-104320000D01*
X156559047Y-104272380D01*
X156320952Y-104272380D01*
X156178095Y-104320000D01*
X155844761Y-104272380D02*
X155606666Y-105272380D01*
X155416190Y-104558095D01*
X155225714Y-105272380D01*
X154987619Y-104272380D01*
X154082857Y-105272380D02*
X154654285Y-105272380D01*
X154368571Y-105272380D02*
X154368571Y-104272380D01*
X154463809Y-104415238D01*
X154559047Y-104510476D01*
X154654285Y-104558095D01*
X153701904Y-104367619D02*
X153654285Y-104320000D01*
X153559047Y-104272380D01*
X153320952Y-104272380D01*
X153225714Y-104320000D01*
X153178095Y-104367619D01*
X153130476Y-104462857D01*
X153130476Y-104558095D01*
X153178095Y-104700952D01*
X153749523Y-105272380D01*
X153130476Y-105272380D01*
X99599523Y-124274761D02*
X99456666Y-124322380D01*
X99218571Y-124322380D01*
X99123333Y-124274761D01*
X99075714Y-124227142D01*
X99028095Y-124131904D01*
X99028095Y-124036666D01*
X99075714Y-123941428D01*
X99123333Y-123893809D01*
X99218571Y-123846190D01*
X99409047Y-123798571D01*
X99504285Y-123750952D01*
X99551904Y-123703333D01*
X99599523Y-123608095D01*
X99599523Y-123512857D01*
X99551904Y-123417619D01*
X99504285Y-123370000D01*
X99409047Y-123322380D01*
X99170952Y-123322380D01*
X99028095Y-123370000D01*
X98694761Y-123322380D02*
X98456666Y-124322380D01*
X98266190Y-123608095D01*
X98075714Y-124322380D01*
X97837619Y-123322380D01*
X96932857Y-124322380D02*
X97504285Y-124322380D01*
X97218571Y-124322380D02*
X97218571Y-123322380D01*
X97313809Y-123465238D01*
X97409047Y-123560476D01*
X97504285Y-123608095D01*
X96599523Y-123322380D02*
X95980476Y-123322380D01*
X96313809Y-123703333D01*
X96170952Y-123703333D01*
X96075714Y-123750952D01*
X96028095Y-123798571D01*
X95980476Y-123893809D01*
X95980476Y-124131904D01*
X96028095Y-124227142D01*
X96075714Y-124274761D01*
X96170952Y-124322380D01*
X96456666Y-124322380D01*
X96551904Y-124274761D01*
X96599523Y-124227142D01*
X118649523Y-124274761D02*
X118506666Y-124322380D01*
X118268571Y-124322380D01*
X118173333Y-124274761D01*
X118125714Y-124227142D01*
X118078095Y-124131904D01*
X118078095Y-124036666D01*
X118125714Y-123941428D01*
X118173333Y-123893809D01*
X118268571Y-123846190D01*
X118459047Y-123798571D01*
X118554285Y-123750952D01*
X118601904Y-123703333D01*
X118649523Y-123608095D01*
X118649523Y-123512857D01*
X118601904Y-123417619D01*
X118554285Y-123370000D01*
X118459047Y-123322380D01*
X118220952Y-123322380D01*
X118078095Y-123370000D01*
X117744761Y-123322380D02*
X117506666Y-124322380D01*
X117316190Y-123608095D01*
X117125714Y-124322380D01*
X116887619Y-123322380D01*
X115982857Y-124322380D02*
X116554285Y-124322380D01*
X116268571Y-124322380D02*
X116268571Y-123322380D01*
X116363809Y-123465238D01*
X116459047Y-123560476D01*
X116554285Y-123608095D01*
X115125714Y-123655714D02*
X115125714Y-124322380D01*
X115363809Y-123274761D02*
X115601904Y-123989047D01*
X114982857Y-123989047D01*
X137699523Y-124274761D02*
X137556666Y-124322380D01*
X137318571Y-124322380D01*
X137223333Y-124274761D01*
X137175714Y-124227142D01*
X137128095Y-124131904D01*
X137128095Y-124036666D01*
X137175714Y-123941428D01*
X137223333Y-123893809D01*
X137318571Y-123846190D01*
X137509047Y-123798571D01*
X137604285Y-123750952D01*
X137651904Y-123703333D01*
X137699523Y-123608095D01*
X137699523Y-123512857D01*
X137651904Y-123417619D01*
X137604285Y-123370000D01*
X137509047Y-123322380D01*
X137270952Y-123322380D01*
X137128095Y-123370000D01*
X136794761Y-123322380D02*
X136556666Y-124322380D01*
X136366190Y-123608095D01*
X136175714Y-124322380D01*
X135937619Y-123322380D01*
X135032857Y-124322380D02*
X135604285Y-124322380D01*
X135318571Y-124322380D02*
X135318571Y-123322380D01*
X135413809Y-123465238D01*
X135509047Y-123560476D01*
X135604285Y-123608095D01*
X134128095Y-123322380D02*
X134604285Y-123322380D01*
X134651904Y-123798571D01*
X134604285Y-123750952D01*
X134509047Y-123703333D01*
X134270952Y-123703333D01*
X134175714Y-123750952D01*
X134128095Y-123798571D01*
X134080476Y-123893809D01*
X134080476Y-124131904D01*
X134128095Y-124227142D01*
X134175714Y-124274761D01*
X134270952Y-124322380D01*
X134509047Y-124322380D01*
X134604285Y-124274761D01*
X134651904Y-124227142D01*
X156749523Y-124274761D02*
X156606666Y-124322380D01*
X156368571Y-124322380D01*
X156273333Y-124274761D01*
X156225714Y-124227142D01*
X156178095Y-124131904D01*
X156178095Y-124036666D01*
X156225714Y-123941428D01*
X156273333Y-123893809D01*
X156368571Y-123846190D01*
X156559047Y-123798571D01*
X156654285Y-123750952D01*
X156701904Y-123703333D01*
X156749523Y-123608095D01*
X156749523Y-123512857D01*
X156701904Y-123417619D01*
X156654285Y-123370000D01*
X156559047Y-123322380D01*
X156320952Y-123322380D01*
X156178095Y-123370000D01*
X155844761Y-123322380D02*
X155606666Y-124322380D01*
X155416190Y-123608095D01*
X155225714Y-124322380D01*
X154987619Y-123322380D01*
X154082857Y-124322380D02*
X154654285Y-124322380D01*
X154368571Y-124322380D02*
X154368571Y-123322380D01*
X154463809Y-123465238D01*
X154559047Y-123560476D01*
X154654285Y-123608095D01*
X153225714Y-123322380D02*
X153416190Y-123322380D01*
X153511428Y-123370000D01*
X153559047Y-123417619D01*
X153654285Y-123560476D01*
X153701904Y-123750952D01*
X153701904Y-124131904D01*
X153654285Y-124227142D01*
X153606666Y-124274761D01*
X153511428Y-124322380D01*
X153320952Y-124322380D01*
X153225714Y-124274761D01*
X153178095Y-124227142D01*
X153130476Y-124131904D01*
X153130476Y-123893809D01*
X153178095Y-123798571D01*
X153225714Y-123750952D01*
X153320952Y-123703333D01*
X153511428Y-123703333D01*
X153606666Y-123750952D01*
X153654285Y-123798571D01*
X153701904Y-123893809D01*
X99599523Y-48074761D02*
X99456666Y-48122380D01*
X99218571Y-48122380D01*
X99123333Y-48074761D01*
X99075714Y-48027142D01*
X99028095Y-47931904D01*
X99028095Y-47836666D01*
X99075714Y-47741428D01*
X99123333Y-47693809D01*
X99218571Y-47646190D01*
X99409047Y-47598571D01*
X99504285Y-47550952D01*
X99551904Y-47503333D01*
X99599523Y-47408095D01*
X99599523Y-47312857D01*
X99551904Y-47217619D01*
X99504285Y-47170000D01*
X99409047Y-47122380D01*
X99170952Y-47122380D01*
X99028095Y-47170000D01*
X98694761Y-47122380D02*
X98456666Y-48122380D01*
X98266190Y-47408095D01*
X98075714Y-48122380D01*
X97837619Y-47122380D01*
X96932857Y-48122380D02*
X97504285Y-48122380D01*
X97218571Y-48122380D02*
X97218571Y-47122380D01*
X97313809Y-47265238D01*
X97409047Y-47360476D01*
X97504285Y-47408095D01*
X96599523Y-47122380D02*
X95932857Y-47122380D01*
X96361428Y-48122380D01*
X118649523Y-48074761D02*
X118506666Y-48122380D01*
X118268571Y-48122380D01*
X118173333Y-48074761D01*
X118125714Y-48027142D01*
X118078095Y-47931904D01*
X118078095Y-47836666D01*
X118125714Y-47741428D01*
X118173333Y-47693809D01*
X118268571Y-47646190D01*
X118459047Y-47598571D01*
X118554285Y-47550952D01*
X118601904Y-47503333D01*
X118649523Y-47408095D01*
X118649523Y-47312857D01*
X118601904Y-47217619D01*
X118554285Y-47170000D01*
X118459047Y-47122380D01*
X118220952Y-47122380D01*
X118078095Y-47170000D01*
X117744761Y-47122380D02*
X117506666Y-48122380D01*
X117316190Y-47408095D01*
X117125714Y-48122380D01*
X116887619Y-47122380D01*
X115982857Y-48122380D02*
X116554285Y-48122380D01*
X116268571Y-48122380D02*
X116268571Y-47122380D01*
X116363809Y-47265238D01*
X116459047Y-47360476D01*
X116554285Y-47408095D01*
X115411428Y-47550952D02*
X115506666Y-47503333D01*
X115554285Y-47455714D01*
X115601904Y-47360476D01*
X115601904Y-47312857D01*
X115554285Y-47217619D01*
X115506666Y-47170000D01*
X115411428Y-47122380D01*
X115220952Y-47122380D01*
X115125714Y-47170000D01*
X115078095Y-47217619D01*
X115030476Y-47312857D01*
X115030476Y-47360476D01*
X115078095Y-47455714D01*
X115125714Y-47503333D01*
X115220952Y-47550952D01*
X115411428Y-47550952D01*
X115506666Y-47598571D01*
X115554285Y-47646190D01*
X115601904Y-47741428D01*
X115601904Y-47931904D01*
X115554285Y-48027142D01*
X115506666Y-48074761D01*
X115411428Y-48122380D01*
X115220952Y-48122380D01*
X115125714Y-48074761D01*
X115078095Y-48027142D01*
X115030476Y-47931904D01*
X115030476Y-47741428D01*
X115078095Y-47646190D01*
X115125714Y-47598571D01*
X115220952Y-47550952D01*
X165004523Y-31519761D02*
X164861666Y-31567380D01*
X164623571Y-31567380D01*
X164528333Y-31519761D01*
X164480714Y-31472142D01*
X164433095Y-31376904D01*
X164433095Y-31281666D01*
X164480714Y-31186428D01*
X164528333Y-31138809D01*
X164623571Y-31091190D01*
X164814047Y-31043571D01*
X164909285Y-30995952D01*
X164956904Y-30948333D01*
X165004523Y-30853095D01*
X165004523Y-30757857D01*
X164956904Y-30662619D01*
X164909285Y-30615000D01*
X164814047Y-30567380D01*
X164575952Y-30567380D01*
X164433095Y-30615000D01*
X164099761Y-30567380D02*
X163861666Y-31567380D01*
X163671190Y-30853095D01*
X163480714Y-31567380D01*
X163242619Y-30567380D01*
X162337857Y-31567380D02*
X162909285Y-31567380D01*
X162623571Y-31567380D02*
X162623571Y-30567380D01*
X162718809Y-30710238D01*
X162814047Y-30805476D01*
X162909285Y-30853095D01*
X161861666Y-31567380D02*
X161671190Y-31567380D01*
X161575952Y-31519761D01*
X161528333Y-31472142D01*
X161433095Y-31329285D01*
X161385476Y-31138809D01*
X161385476Y-30757857D01*
X161433095Y-30662619D01*
X161480714Y-30615000D01*
X161575952Y-30567380D01*
X161766428Y-30567380D01*
X161861666Y-30615000D01*
X161909285Y-30662619D01*
X161956904Y-30757857D01*
X161956904Y-30995952D01*
X161909285Y-31091190D01*
X161861666Y-31138809D01*
X161766428Y-31186428D01*
X161575952Y-31186428D01*
X161480714Y-31138809D01*
X161433095Y-31091190D01*
X161385476Y-30995952D01*
X164814047Y-34107380D02*
X164814047Y-33440714D01*
X164814047Y-33631190D02*
X164766428Y-33535952D01*
X164718809Y-33488333D01*
X164623571Y-33440714D01*
X164528333Y-33440714D01*
X163814047Y-34059761D02*
X163909285Y-34107380D01*
X164099761Y-34107380D01*
X164195000Y-34059761D01*
X164242619Y-33964523D01*
X164242619Y-33583571D01*
X164195000Y-33488333D01*
X164099761Y-33440714D01*
X163909285Y-33440714D01*
X163814047Y-33488333D01*
X163766428Y-33583571D01*
X163766428Y-33678809D01*
X164242619Y-33774047D01*
X163385476Y-34059761D02*
X163290238Y-34107380D01*
X163099761Y-34107380D01*
X163004523Y-34059761D01*
X162956904Y-33964523D01*
X162956904Y-33916904D01*
X163004523Y-33821666D01*
X163099761Y-33774047D01*
X163242619Y-33774047D01*
X163337857Y-33726428D01*
X163385476Y-33631190D01*
X163385476Y-33583571D01*
X163337857Y-33488333D01*
X163242619Y-33440714D01*
X163099761Y-33440714D01*
X163004523Y-33488333D01*
X162147380Y-34059761D02*
X162242619Y-34107380D01*
X162433095Y-34107380D01*
X162528333Y-34059761D01*
X162575952Y-33964523D01*
X162575952Y-33583571D01*
X162528333Y-33488333D01*
X162433095Y-33440714D01*
X162242619Y-33440714D01*
X162147380Y-33488333D01*
X162099761Y-33583571D01*
X162099761Y-33678809D01*
X162575952Y-33774047D01*
X161814047Y-33440714D02*
X161433095Y-33440714D01*
X161671190Y-33107380D02*
X161671190Y-33964523D01*
X161623571Y-34059761D01*
X161528333Y-34107380D01*
X161433095Y-34107380D01*
M02*
